<svg width="230" height="235" viewBox="0 0 230 235" fill="none" xmlns="http://www.w3.org/2000/svg"><path fill-rule="evenodd" clip-rule="evenodd" d="M80.103.213L84.785 0c44.628 0 81.167 34.34 84.715 77.974h-10.643c-2.483-26.677-19.086-49.168-42.286-60.165l-9.436 9.436L80.103.213zM59.315 106.142c-1.35 0-2.625-.213-3.69-.568-1.136-.426-2.058-.922-2.838-1.703a7.033 7.033 0 0 1-1.845-2.625c-.425-.993-.638-2.128-.638-3.335H41.08c0 2.554.497 4.825 1.49 6.741a15.686 15.686 0 0 0 3.973 4.895 17.94 17.94 0 0 0 5.818 2.909c2.128.71 4.399 1.065 6.812 1.065 2.625 0 5.108-.355 7.308-1.065a18.962 18.962 0 0 0 2.407-.933 17.151 17.151 0 0 0 2.379-1.358c.383-.264.75-.54 1.102-.831a14.034 14.034 0 0 0 3.903-5.108c.921-2.058 1.418-4.328 1.418-6.882 0-1.348-.141-2.697-.497-3.973-.354-1.278-.85-2.484-1.632-3.619a9.077 9.077 0 0 0-.751-1.034c-.133-.16-.272-.318-.416-.473a16.205 16.205 0 0 0-1.67-1.544c-1.206-.922-2.625-1.632-4.329-2.199a14.872 14.872 0 0 0 5.094-3.731c.451-.511.856-1.041 1.222-1.59a12.514 12.514 0 0 0 1.56-3.264 11.32 11.32 0 0 0 .497-3.406c0-2.554-.425-4.825-1.277-6.81-.851-1.988-2.057-3.62-3.619-4.897-1.419-1.348-3.334-2.341-5.463-3.05a24.57 24.57 0 0 0-3.187-.697 27.12 27.12 0 0 0-4.05-.297c-2.554 0-4.896.355-7.095 1.136-2.128.78-4.044 1.844-5.604 3.192-.863.78-1.63 1.631-2.302 2.568-.49.681-.929 1.408-1.318 2.186a13.579 13.579 0 0 0-.913 2.684 15.04 15.04 0 0 0-.363 3.347H50.8c0-1.207.213-2.27.639-3.193.425-.923.993-1.774 1.774-2.412.78-.64 1.632-1.207 2.695-1.561a10.397 10.397 0 0 1 3.407-.568c2.837 0 4.966.71 6.314 2.2 1.348 1.418 2.057 3.476 2.057 6.101a10.83 10.83 0 0 1-.567 3.477c-.355 1.064-.993 1.915-1.774 2.625-.78.71-1.774 1.277-2.908 1.703a8.642 8.642 0 0 1-1.047.315 11.33 11.33 0 0 1-1.157.207c-.604.078-1.245.116-1.912.116h-5.464v7.308h5.464c1.56 0 2.98.142 4.257.497 1.277.355 2.34.922 3.192 1.632.852.78 1.562 1.703 2.058 2.838.497 1.135.71 2.483.71 4.044 0 2.909-.852 5.108-2.483 6.598-1.632 1.632-3.903 2.342-6.74 2.342zM53 152.401c-23.201-10.926-39.804-33.488-42.357-60.166H0c3.618 43.705 40.158 78.046 84.785 78.046l4.683-.213-27.032-27.032L53 152.401zm58.888-93.725a23.64 23.64 0 0 1 8.089 5.463c2.27 2.342 4.044 5.18 5.321 8.514 1.206 3.335 1.845 7.024 1.845 11.14v2.837c0 4.116-.639 7.805-1.845 11.14-1.206 3.263-2.981 6.101-5.25 8.442-2.271 2.342-5.038 4.116-8.231 5.393-3.193 1.277-6.811 1.916-10.713 1.916H84.785v-56.76h16.744c3.831 0 7.308.638 10.359 1.915zm5.322 27.883c0 2.98-.356 5.605-.993 8.018-.71 2.341-1.703 4.399-3.052 6.03a13.273 13.273 0 0 1-5.037 3.761c-2.058.851-4.399 1.277-7.024 1.277h-6.457V64.707h6.882c5.109 0 9.011 1.631 11.636 4.895 2.696 3.264 4.045 7.946 4.045 14.12v2.837z" transform="translate(30 24)" fill="#fff" filter="url(#a)"/><defs><filter id="a" x="0" y="0" width="229.5" height="234.281" filterUnits="userSpaceOnUse" color-interpolation-filters="sRGB"><feFlood flood-opacity="0" result="BackgroundImageFix"/><feColorMatrix in="SourceAlpha" values="0 0 0 0 0 0 0 0 0 0 0 0 0 0 0 0 0 0 255 0"/><feOffset dy="8"/><feGaussianBlur stdDeviation="5"/><feColorMatrix values="0 0 0 0 0 0 0 0 0 0 0 0 0 0 0 0 0 0 0.2 0"/><feBlend in2="BackgroundImageFix" result="effect1_dropShadow"/><feColorMatrix in="SourceAlpha" values="0 0 0 0 0 0 0 0 0 0 0 0 0 0 0 0 0 0 255 0"/><feOffset dy="6"/><feGaussianBlur stdDeviation="15"/><feColorMatrix values="0 0 0 0 0 0 0 0 0 0 0 0 0 0 0 0 0 0 0.12 0"/><feBlend in2="effect1_dropShadow" result="effect2_dropShadow"/><feColorMatrix in="SourceAlpha" values="0 0 0 0 0 0 0 0 0 0 0 0 0 0 0 0 0 0 255 0"/><feOffset dy="16"/><feGaussianBlur stdDeviation="12"/><feColorMatrix values="0 0 0 0 0 0 0 0 0 0 0 0 0 0 0 0 0 0 0.14 0"/><feBlend in2="effect2_dropShadow" result="effect3_dropShadow"/><feBlend in="SourceGraphic" in2="effect3_dropShadow" result="shape"/></filter></defs></svg>