<svg width="20" height="19" viewBox="0 0 20 19" fill="none" xmlns="http://www.w3.org/2000/svg"><path d="M7.545 18a.814.814 0 0 0 .819-.81.814.814 0 0 0-.819-.81.814.814 0 0 0-.818.81c0 .448.367.81.818.81zM16.545 18a.814.814 0 0 0 .819-.81.814.814 0 0 0-.819-.81.814.814 0 0 0-.818.81c0 .448.367.81.818.81zM1 1h3.273l2.192 10.84c.075.372.28.707.58.945.299.239.673.365 1.057.358h7.953c.383.007.758-.12 1.057-.358.3-.238.504-.573.579-.946L19 5.048H5.09" stroke="#045CAB" stroke-linecap="round" stroke-linejoin="round"/></svg>