<svg width="40" height="54" viewBox="0 0 40 54" fill="none" xmlns="http://www.w3.org/2000/svg">
<path fill-rule="evenodd" clip-rule="evenodd" d="M19.9995 5.414e-06C12.9437 -0.00482616 6.4081 3.71334 2.80399 9.78278C-0.800118 15.8522 -0.938653 23.3734 2.4395 29.5716C2.48636 29.7871 18.0931 52.8991 18.0931 52.8991C18.4867 53.5804 19.2135 54 20 54C20.7865 54 21.5133 53.5804 21.9069 52.8991C22.3004 52.2178 37.5107 29.7881 37.5605 29.5716C40.9387 23.3733 40.8001 15.8518 37.1958 9.78235C33.5914 3.71285 27.0555 -0.00517863 19.9995 5.414e-06ZM19.9517 27.9334C15.5465 27.9334 11.9753 24.3602 11.9753 19.9524C11.9753 15.5447 15.5465 11.9714 19.9517 11.9714C24.357 11.9714 27.9281 15.5447 27.9281 19.9524C27.9281 24.3602 24.357 27.9334 19.9517 27.9334Z" fill="#FEB811"/>
</svg>
