<svg width="243" height="39" viewBox="0 0 243 39" fill="none" xmlns="http://www.w3.org/2000/svg"><path fill-rule="evenodd" clip-rule="evenodd" d="M19.412 0c10.722 0 19.412 8.732 19.412 19.5S30.131 39 19.412 39C8.693 39.003 0 30.27 0 19.5S8.693 0 19.412 0zm0 1.3C29.42 1.3 37.53 9.45 37.53 19.5c0 10.05-8.113 18.202-18.117 18.202-10.007 0-18.12-8.15-18.12-18.202 0-10.052 8.113-18.2 18.12-18.2z" fill="#045CAB"/><path fill-rule="evenodd" clip-rule="evenodd" d="M21.164 18.687l-2.36.003a6.5 6.5 0 0 1 2.332-4.226h11.028v.016a6.483 6.483 0 0 0-2.313 4.21h-8.687v-.003zm8.684 1.623a6.473 6.473 0 0 0 2.316 4.213v.016h-11v-.007h-.034a6.498 6.498 0 0 1-2.326-4.219h2.36v-.003h8.684zM3.797 14.464h11.528a6.5 6.5 0 0 0-2.331 4.223H2.618c.11-1.513.523-2.94 1.179-4.223zM2.618 20.31h10.376a6.506 6.506 0 0 0 2.325 4.222H3.793a10.959 10.959 0 0 1-1.175-4.222zM15.193 30.435h-3.21a10.987 10.987 0 0 1-7.137-4.225h30.012a16.917 16.917 0 0 1-2.619 4.225H15.193zM22.4 12.882H4.78c1.6-2.146 3.96-3.69 6.683-4.226H32.32a16.996 16.996 0 0 1 2.58 4.226H22.4zM159.324 24.536V9.948h12.386l-1.405 3.19h-5.725v2.039h4.84c.818 0 4.43 1.066 4.43 4.412 0 3.345-1.737 4.618-3.756 4.918l-.18.026h-4.852l1.547-3.241s2.34.43 2.34-1.295c0-1.725-1.562-1.633-1.562-1.633h-2.757l.028 6.169h-5.334v.003zM190.892 24.561L192 22.266s-1.472-1.17-1.497-3.038c-.025-1.868 1.749-3.846 3.636-3.846h9.434v6.913h1.248l-1.305 2.266h-4.524v-1.57h-2.026l-.804 1.57h-5.271zm5.16-3.94s-1.137-.336-1.137-1.45c0-1.114 1.138-1.339 1.138-1.339h2.914v2.788h-2.914zM242.216 15.284l-1.226 3.453v.734l1.28 2.627h.73l-1.058 2.368h-3.381l-2.102-4.314c-.318.013-.542.082-.677.212a.622.622 0 0 0-.202.468c0 .222.073.453.22.697.146.243.319.433.511.57l-1.058 2.367h-4.295V14.347l-.731-.367 1.043-2.367h4.313v6.39h.75l1.333-2.719h4.55zM228.799 18l-2.174-.019a2.1 2.1 0 0 0-.804.155 2.312 2.312 0 0 0-.687.43c-.201.184-.359.396-.475.634a1.633 1.633 0 0 0-.174.724c0 .231.06.46.183.68.123.222.28.415.476.59.195.17.419.31.677.411.255.104.517.155.785.155h3.034l-1.352 2.7h-4.477c-.06 0-.217-.035-.466-.101a5.794 5.794 0 0 1-.876-.33 8.142 8.142 0 0 1-1.068-.598 5.244 5.244 0 0 1-1.034-.88 4.663 4.663 0 0 1-.778-1.183 3.548 3.548 0 0 1-.312-1.513c0-.551.104-1.048.312-1.488.208-.44.466-.83.778-1.165a5.414 5.414 0 0 1 1.034-.87 9.525 9.525 0 0 1 1.068-.605c.334-.158.627-.275.876-.348.249-.073.406-.11.466-.11h4.99V18h-.002zM217.96 15.284v6.811h.731l-1.077 2.368h-4.241V21.23h-1.828v3.232h-4.751V18l-.731-.367 1.043-2.349h4.44v3.232h1.827v-3.232h4.588zM175.825 29.052V18.02l-.731-.367 1.043-2.368h9.213c.047 0 .183.038.403.111.22.073.473.19.76.348.286.158.592.361.913.608.325.244.621.535.895.87.274.336.501.725.678 1.165.176.44.264.937.264 1.488A4.11 4.11 0 0 1 189 21.39a4.4 4.4 0 0 1-.678 1.174 5.42 5.42 0 0 1-.895.873 7.428 7.428 0 0 1-.913.599 4.362 4.362 0 0 1-.76.329c-.22.066-.353.101-.403.101h-3.876L180.45 22.1v4.589h.731c0 .013-.053.14-.163.386-.11.244-.234.513-.366.807l-.51 1.174h-4.317v-.003zm6.727-7.289c.233 0 .457-.05.677-.155.22-.104.413-.24.586-.411.17-.171.31-.368.41-.59.104-.22.154-.445.154-.68a1.884 1.884 0 0 0-.557-1.329 2.185 2.185 0 0 0-.602-.43 1.543 1.543 0 0 0-.687-.165h-2.083v3.763h2.102v-.003zM135.05 29.052V18.02l-.731-.367 1.043-2.368h9.213c.05 0 .183.038.403.111.22.073.473.19.76.348.286.158.592.361.913.608.325.244.621.535.895.87.274.336.501.725.678 1.165.176.44.264.937.264 1.488a4.11 4.11 0 0 1-.264 1.516 4.4 4.4 0 0 1-.678 1.174 5.42 5.42 0 0 1-.895.873 7.428 7.428 0 0 1-.914.599 4.362 4.362 0 0 1-.759.329c-.22.066-.353.101-.403.101h-3.876l-1.024-2.367v4.589h.731c0 .013-.053.14-.163.386-.11.244-.23.513-.366.807l-.514 1.174h-4.313v-.003zm6.724-7.289c.233 0 .457-.05.677-.155.22-.104.413-.24.586-.411.17-.171.31-.368.41-.59.104-.22.154-.445.154-.68a1.884 1.884 0 0 0-.557-1.329 2.185 2.185 0 0 0-.602-.43 1.543 1.543 0 0 0-.687-.165h-2.083v3.763h2.102v-.003zM124.211 24.463c-.33-.098-.715-.269-1.16-.513a6.495 6.495 0 0 1-1.288-.946 5.466 5.466 0 0 1-1.052-1.358c-.287-.519-.429-1.11-.429-1.772.025-.611.176-1.206.457-1.782.123-.244.277-.497.466-.753.19-.257.422-.507.697-.754.274-.247.601-.48.986-.706a7.505 7.505 0 0 1 1.326-.598h5.555c.659.184 1.26.478 1.809.883a5.74 5.74 0 0 1 1.36 1.406c.36.531.6 1.107.722 1.725a3.492 3.492 0 0 1-.138 1.854c-.215.618-.615 1.216-1.207 1.792-.592.576-1.412 1.082-2.458 1.522h-5.646zm.948-4.535c0 .243.05.478.155.696.104.221.24.411.413.58.17.164.365.297.586.395.22.098.45.145.693.145.255 0 .498-.047.73-.145.23-.098.436-.231.612-.396.177-.164.315-.358.413-.58.098-.22.145-.452.145-.695 0-.257-.047-.507-.145-.744a1.756 1.756 0 0 0-.413-.614 2.08 2.08 0 0 0-.611-.412 1.764 1.764 0 0 0-.731-.155c-.243 0-.476.05-.693.155a2 2 0 0 0-.999 1.025c-.101.241-.155.488-.155.745zM109.424 24.463c-.06 0-.198-.035-.412-.101a4.522 4.522 0 0 1-.75-.33 6.567 6.567 0 0 1-.914-.597 5.071 5.071 0 0 1-.895-.874 4.4 4.4 0 0 1-.677-1.174 4.1 4.1 0 0 1-.265-1.516c0-.551.088-1.048.265-1.488.176-.44.403-.83.677-1.165.274-.335.574-.626.895-.87.321-.244.627-.446.914-.608.286-.158.535-.275.75-.348.214-.073.35-.11.412-.11h9.522v11.4h.731c0 .013-.053.14-.164.386l-.365.807-.514 1.174h-4.313v-6.953l-1.024 2.367h-3.873zm4.9-2.7V18h-2.083a1.51 1.51 0 0 0-.693.165c-.22.11-.416.253-.596.43a1.93 1.93 0 0 0-.412.614 1.826 1.826 0 0 0-.145.715c0 .232.05.46.154.681a2.067 2.067 0 0 0 .999 1c.22.105.444.155.677.155h2.099v.003zM95.407 24.463a6.187 6.187 0 0 1-1.16-.513 6.406 6.406 0 0 1-1.289-.946 5.467 5.467 0 0 1-1.052-1.358c-.287-.519-.428-1.11-.428-1.772.025-.611.176-1.206.456-1.782.123-.244.278-.497.467-.753a4.93 4.93 0 0 1 .696-.754c.274-.243.602-.48.986-.706a7.574 7.574 0 0 1 1.324-.598h5.558c.658.184 1.26.478 1.808.883a5.74 5.74 0 0 1 1.361 1.406c.36.531.599 1.107.722 1.725a3.492 3.492 0 0 1-.139 1.854c-.214.618-.614 1.216-1.207 1.792-.592.576-1.411 1.082-2.457 1.522h-5.646zm.948-4.535c0 .243.05.478.154.696.104.221.24.411.413.58.17.164.366.297.586.395.22.098.45.145.693.145.256 0 .501-.047.731-.145.23-.098.435-.231.612-.396.176-.164.315-.358.412-.58.098-.22.145-.452.145-.695 0-.257-.047-.507-.145-.744a1.756 1.756 0 0 0-.412-.614 2.08 2.08 0 0 0-.612-.412 1.764 1.764 0 0 0-.73-.155c-.243 0-.476.05-.694.155a2 2 0 0 0-.999 1.025c-.1.241-.154.488-.154.745zM90.088 15.284l-1.226 3.453v.734l1.28 2.627h.73l-1.058 2.368h-3.381l-2.102-4.314c-.318.013-.542.082-.677.212a.622.622 0 0 0-.202.468c0 .222.073.453.22.697.146.243.32.433.511.57l-1.058 2.367H78.83V14.347l-.73-.367 1.042-2.367h4.313v6.39h.75l1.333-2.719h4.55zM66.564 15.284c.366.845.687 1.605.967 2.276.123.282.237.56.347.835.11.276.211.52.302.735.092.215.167.39.23.522.06.136.092.203.092.203.085-.222.189-.46.312-.716.097-.209.208-.452.327-.734.123-.282.25-.563.385-.845l1.024-2.276h3.38l2.887 6.811h.696l-1.024 2.368h-3.38l-2.102-4.314s-.029.06-.082.183c-.054.124-.126.285-.22.488-.092.202-.193.43-.303.69-.11.26-.227.519-.347.788a134.4 134.4 0 0 0-.933 2.168h-3.38l-2.102-4.314-.876 1.947h.731l-1.058 2.367h-3.381l4.13-9.179h3.378v-.003zM48.214 24.463c-.06 0-.199-.035-.413-.101a4.522 4.522 0 0 1-.75-.33 6.567 6.567 0 0 1-.914-.598 5.07 5.07 0 0 1-.895-.873 4.4 4.4 0 0 1-.677-1.174 4.1 4.1 0 0 1-.265-1.516c0-.551.089-1.048.265-1.488.176-.44.403-.83.677-1.165.275-.335.574-.626.895-.87.325-.244.627-.446.914-.608.287-.158.536-.275.75-.348.214-.073.35-.11.413-.11h9.521v6.81h.731c0 .013-.053.143-.163.387-.11.243-.23.515-.366.807l-.51 1.174h-4.314v-2.368L52.09 24.46h-3.875v.003zm4.9-2.7V18H51.03a1.51 1.51 0 0 0-.693.165 2.129 2.129 0 0 0-.999 1.044 1.73 1.73 0 0 0-.154.715c0 .231.054.46.154.68a2.067 2.067 0 0 0 1 1.001c.22.104.444.155.677.155h2.098v.003z" fill="#045CAB"/><path d="M157.329 18.61h-6.853v2.527h6.853V18.61z" fill="#045CAB"/></svg>