<svg width="152" height="39" viewBox="0 0 152 39" fill="none" xmlns="http://www.w3.org/2000/svg"><path fill-rule="evenodd" clip-rule="evenodd" d="M106.277 20.693c3.095 3.835 6.163 4.735 9.822 2.648 0 .333-.005.645-.01.94-.013.845-.024 1.552.09 2.228.027.23-.014.503-.054.78-.099.673-.2 1.36.675 1.455l.102.011.124.015c.182.023.366.05.552.077 1.273.185 2.615.38 3.751-.564.445-.34.567-.961.285-1.446-.925-1.413-.723-2.877-.507-4.45.08-.579.162-1.172.19-1.784 1.88 4.16 5.291 4.052 8.723 3.942l.364-.01.43-.013c2.636-.063 4.887-1.986 5.166-4.363a5.295 5.295 0 0 0-3.885-5.572c-4.334-1.287-8.41.074-10.977 3.67-.148-1.764-.221-2.646-.7-3.087-.48-.44-1.364-.44-3.133-.44h-5.003c-2.046-.006-3.865.556-4.966 2.394-.88 1.451-1.292.953-1.935-.138-1.925-3.268-6.622-3.088-10.086-2.208-2.868.725-3.722 2.843-3.532 7.192-1.334-1.24-2.056-2.357-1.418-4.168 1.11-3.137 1.067-3.138-2.157-3.175l-.247-.003c-1.656 0-2.368.784-2.895 2.119-.18.444-.437 1.053-1.133.768-.422-.175-.4-.57-.378-.932.004-.077.009-.152.009-.223a39.993 39.993 0 0 1 0-4.237C83.69 10.482 83.059 10 81.477 10c-3.69-.01-3.838.07-3.163 3.613.069.613.081 1.232.037 1.848V22.6c.001.104-.002.212-.005.32-.018.684-.038 1.405 1.022 1.428.257.005.517.017.777.028h.01c.98.042 1.97.084 2.872-.166.985-.284 1.053-1.216 1.121-2.147.022-.3.044-.6.097-.877.12.074.221.127.306.172.067.036.124.067.17.096.055.035.096.07.125.113 2.314 3.554 3.759 3.84 6.89 1.192.621-.525.872-.281 1.167.006.085.083.175.17.278.243 4.613 3.246 10.17 2.256 13.096-2.315zm8.135-3.251c1.774-.116 1.75.928 1.656 2.154.142 1.243.056 2.231-1.672 2.114-1.455-.116-2.704-.519-2.694-2.15.01-1.63 1.234-2.023 2.71-2.118zm-15.426.127c-1.287.058-2.062.762-2.11 1.948-.047 1.187.818 1.96 2.01 1.987a1.8 1.8 0 0 0 1.346-.473c.365-.337.576-.81.583-1.307.106-1.266-.706-1.907-1.824-2.166l-.005.01zm27.831 2.002c0-1.202.738-1.896 1.956-2.002v-.027c1.24.112 1.988.816 2.004 2.029a1.832 1.832 0 0 1-.532 1.447c-.381.38-.91.572-1.445.523a1.835 1.835 0 0 1-1.441-.528 1.853 1.853 0 0 1-.542-1.442zM32.418 5.525c-3.561-3.6-8.378-5.59-13.376-5.523C8.383.002.02 8.515 0 19.374.056 30.131 8.495 38.86 18.974 39c10.5.043 19.083-8.906 19.026-19.83-.011-5.13-2.021-10.044-5.582-13.645zm4.072 14.506c-.372 9.724-8.583 17.613-17.93 17.22v.016C8.671 36.858 1.131 28.592 1.54 18.605c.388-9.697 8.62-17.5 18.03-17.102 9.678.409 17.291 8.804 16.919 18.528zM142.72 24.49c.025-.328.053-.677.053-1.043 1.685 1.32 3.417 1.144 5.123.8 2.856-.53 4.223-2.21 4.096-4.851-.111-2.392-1.68-4.092-4.424-4.285-1.87-.13-3.747-.116-5.623-.103-1.037.008-2.074.016-3.109 0-1.467-.021-2.103 1.06-1.732 2.001.786 1.998.679 4.018.571 6.033-.066 1.241-.132 2.48.011 3.712.023.188.007.404-.008.621-.044.611-.09 1.242.692 1.36l.33.053c1.35.215 2.802.448 4.036-.297.895-.54.514-1.373.1-2.257-.217-.476-.17-1.066-.117-1.744zm-.01-5.016c-.133-1.217.153-2.08 1.515-1.82v.021c1.541.052 2.712.525 2.691 2.023-.021 1.612-1.32 1.991-2.755 2.08-1.544.097-1.499-.756-1.454-1.605.013-.24.026-.48.002-.699z" fill="#FEFEFE"/><path d="M69.932 21.69c-3.677 4.243-4.45 4.28-8.152.169-.236.673-.415 1.305-.678 1.899-.74 1.697-2.42 1.273-3.424.928-1.492-.53-.1-1.533.194-2.27a60.488 60.488 0 0 1 2.06-4.578c.672-1.347.981-2.859 3.187-2.838 2.206.021 2.432 1.592 3.152 2.923l.62 1.183c1.155-.202 1.16-1.279 1.475-1.99.589-1.315 1.224-2.121 2.89-2.09 1.664.033 2.32.664 2.872 2.059a34.642 34.642 0 0 0 2.41 4.98c1.051 1.772.18 2.425-1.333 2.7-2.138.393-2.763-.026-5.273-3.076z" fill="#FEFEFE"/><path fill-rule="evenodd" clip-rule="evenodd" d="M51.063 15.023h-.267c-.426.001-.853-.005-1.278-.011-.997-.015-1.989-.031-2.962.059-2.884.202-4.518 2.046-4.555 4.864-.064 4.615 4.742 5.632 8.261 4.47.142-.049.258-.1.36-.144.384-.168.573-.25 1.184.145a4.598 4.598 0 0 0 4.32.107c1.346-.656.876-2.03.315-3.198-.08-.35-.093-.71-.037-1.065-.078-2.621-.116-3.928-.79-4.58-.669-.647-1.965-.647-4.55-.647zm.384 5.103c-.01 1.123-.019 2.144-1.484 1.898-1.596-.005-2.868-.389-2.916-2.115-.042-1.492 1.015-2.009 2.425-2.131 1.805-.155 1.976.91 1.976 2.29v.058z" fill="#FEFEFE"/><path d="M5 26.136h16.262c3.46 0 6.94-.057 10.384.036.811 0 2.333-.676 2.354.652-.03 1.334-.842 2.537-2.093 3.1-.17.062-.352.086-.534.072-6.657-.036-13.315.057-19.961-.18-2.274-.11-4.346-1.324-6.412-3.68zM5 13.917c2.691-2.637 5.186-3.882 8.254-3.887h16.889a4.786 4.786 0 0 1 1.59.088A3.338 3.338 0 0 1 34 13.312c-.053 1.074-1.59.568-2.49.574-8.604.047-17.191.03-26.51.03zM31 24h-9.743c-2.233 0-2.049-1.744-2.233-2.917-.24-1.603 1.363-.932 2.194-1.002 1.575-.105 3.16-.03 4.74-.03 4.032.01 4.032.015 5.042 3.949zM24.584 18.92a19.626 19.626 0 0 1-3.072-.035c-.898-.147-2.62.759-2.507-.916.108-1.302.09-3.06 2.7-2.938 2.421.113 4.855-.024 7.277.059.717.024 2.377-.49 1.948.7-.39 1.058.339 3.066-2.14 3.13-1.428.029-2.806-.006-4.206 0zM9.075 23.934a33.086 33.086 0 0 0-3.381 0c-2.085.22-2.408-1.108-2.658-2.585-.166-.995.24-1.358 1.25-1.348 2.517 0 5.034.055 7.55 0 2.408-.055 1.887 1.99 2.121 3.063.323 1.492-1.271.726-2.021.83-.952.077-1.908.087-2.86.03v.01zM9.313 15.116a8.69 8.69 0 0 1 2.093.034c.91.232 2.685-.863 2.59.752-.073 1.254.037 3.376-2.804 3.068-2.046-.237-4.155 0-6.232-.063-.816 0-2.177.449-1.93-1.104.177-1.12.052-2.571 1.888-2.672 1.465-.082 2.946 0 4.416 0l-.02-.015z" fill="#FEFEFE"/></svg>